<svg width="33" height="33" viewBox="0 0 33 33" fill="none" xmlns="http://www.w3.org/2000/svg">
<path d="M32.6791 13.2685H31.35V13.2H16.5V19.8H25.825C24.4645 23.642 20.809 26.4 16.5 26.4C11.0327 26.4 6.6 21.9673 6.6 16.5C6.6 11.0327 11.0327 6.6 16.5 6.6C19.0237 6.6 21.3196 7.55205 23.0678 9.10717L27.7348 4.44015C24.7879 1.69372 20.8461 0 16.5 0C7.38787 0 0 7.38787 0 16.5C0 25.6121 7.38787 33 16.5 33C25.6121 33 33 25.6121 33 16.5C33 15.3937 32.8861 14.3137 32.6791 13.2685Z" fill="#FFC107"/>
<path d="M1.9024 8.82007L7.32348 12.7957C8.79033 9.1641 12.3428 6.6 16.5 6.6C19.0236 6.6 21.3196 7.55205 23.0678 9.10717L27.7348 4.44015C24.7879 1.69372 20.8461 0 16.5 0C10.1623 0 4.66615 3.57802 1.9024 8.82007Z" fill="#FF3D00"/>
<path d="M16.5 33C20.762 33 24.6345 31.369 27.5625 28.7166L22.4557 24.3952C20.7991 25.6501 18.7399 26.4 16.5 26.4C12.2084 26.4 8.56436 23.6635 7.19156 19.8445L1.81091 23.9902C4.54166 29.3337 10.0873 33 16.5 33Z" fill="#4CAF50"/>
<path d="M32.6791 13.2685H31.35V13.2H16.5V19.8H25.825C25.1716 21.6455 23.9844 23.237 22.4532 24.3961C22.454 24.3953 22.4548 24.3953 22.4557 24.3944L27.5624 28.7158C27.2011 29.0441 33 24.75 33 16.5C33 15.3937 32.8861 14.3138 32.6791 13.2685Z" fill="#1976D2"/>
</svg>
